<?xml version="1.0" standalone="no"?>
<svg version="1.0" xmlns="http://www.w3.org/2000/svg"
 width="367.000000pt" height="345.000000pt" viewBox="0 0 367.000000 345.000000"
 preserveAspectRatio="xMidYMid meet">

<g transform="translate(0.000000,345.000000) scale(0.100000,-0.100000)"
fill="#555adf" stroke="none">
<path d="M1672 3425 c-54 -24 -111 -74 -132 -114 -10 -21 -35 -96 -54 -167
-20 -71 -45 -158 -55 -194 -11 -36 -36 -123 -56 -195 -19 -71 -46 -166 -59
-210 -14 -44 -39 -132 -56 -195 -37 -133 -58 -209 -95 -335 -14 -49 -33 -115
-41 -145 -9 -30 -22 -75 -29 -100 -45 -154 -110 -380 -136 -470 -16 -58 -36
-127 -44 -155 -8 -27 -20 -69 -26 -92 -17 -64 -26 -68 -111 -42 -93 29 -250
31 -347 5 -142 -38 -264 -119 -334 -223 -160 -234 -89 -537 160 -685 182 -108
434 -123 618 -37 73 34 204 144 228 190 9 19 42 122 73 229 31 107 63 218 71
245 8 28 23 82 33 121 10 38 30 106 44 150 15 43 34 110 42 147 8 38 32 128
54 200 43 147 72 247 100 352 17 64 49 181 86 310 32 112 54 192 65 235 7 25
22 81 35 125 13 44 44 154 69 245 26 91 50 179 55 195 5 17 17 59 26 95 24 90
27 92 93 85 217 -23 490 -100 662 -186 107 -53 234 -148 326 -241 209 -213
303 -425 303 -686 0 -161 -9 -175 -165 -252 -187 -92 -361 -157 -660 -246 -66
-19 -131 -41 -145 -47 l-25 -13 -3 -432 c-2 -355 0 -433 11 -438 18 -7 153 31
241 68 39 16 115 47 168 68 181 74 386 213 567 385 201 192 359 467 411 715
18 86 24 285 11 382 -22 161 -106 382 -196 513 -27 39 -61 88 -76 110 -15 22
-67 81 -116 131 -157 161 -327 283 -533 382 -192 92 -319 132 -625 197 -154
33 -382 44 -433 20z"/>
</g>
</svg>
